<svg width="984" height="400" viewBox="0 0 984 400" fill="none" xmlns="http://www.w3.org/2000/svg">
<mask id="mask0_487_1284" style="mask-type:alpha" maskUnits="userSpaceOnUse" x="0" y="0" width="984" height="400">
<rect width="984" height="400" fill="#FD4E2B"/>
</mask>
<g mask="url(#mask0_487_1284)">
<path d="M564.607 423.184L507.252 550.032L380.008 510.659L575.762 80.6609C647.353 153.915 776.183 127.387 810.672 28.7369L902.662 362.66L759.803 330.687L702.447 457.535L564.607 423.184Z" fill="#FFED46"/>
<path fill-rule="evenodd" clip-rule="evenodd" d="M419.349 489.486C413.039 476.681 425.023 462.68 431.557 449.837C436.514 440.096 443.504 432.702 451.86 425.59C463.879 415.358 474.103 398.867 489.764 400.289C506.247 401.784 520.839 416.279 524.774 432.207C528.333 446.612 511.675 457.407 507.408 471.712C503.096 486.168 512.892 506.22 500.205 514.572C487.614 522.861 472.57 508.494 458.273 504.059C444.507 499.788 425.677 502.33 419.349 489.486Z" fill="#FD4E2B"/>
<path fill-rule="evenodd" clip-rule="evenodd" d="M569 179.144C573.543 163.006 584.798 147.757 600.741 142.648C615.699 137.853 629.519 149.767 644.313 155.006C659.519 160.392 682.602 157.744 687.142 173.249C691.784 189.101 667.985 198.248 661.417 213.419C655.604 226.843 662.853 244.825 651.94 254.555C639.104 265.999 619.323 271.705 603.496 265.06C587.928 258.524 584.275 239.191 577.975 223.502C572.134 208.954 564.746 194.249 569 179.144Z" fill="#FD4E2B"/>
<path fill-rule="evenodd" clip-rule="evenodd" d="M814.043 151.822C827.863 166.053 813.449 189.604 818.264 208.826C822.761 226.776 846.152 239.81 840.495 257.409C834.698 275.44 812.1 281.366 793.602 285.547C776.181 289.484 758.096 288.087 742.365 279.586C726.372 270.944 713.446 257.017 708.485 239.551C703.518 222.063 708.778 204.257 716.272 187.718C724.704 169.108 733.706 148.565 752.905 141.516C773.05 134.12 799.075 136.407 814.043 151.822Z" fill="#FD4E2B"/>
<path fill-rule="evenodd" clip-rule="evenodd" d="M592.788 395.521C578.316 399.234 564.646 392.103 550.273 387.891C533.259 382.905 512.392 383.998 502.648 369.107C492.107 352.999 492.668 330.542 501.662 313.606C510.027 297.853 528.572 291.505 545.932 287.597C559.913 284.45 574.475 286.996 586.789 294.442C597.296 300.796 599.541 313.826 606.305 324.104C615.946 338.753 637.384 349.178 634.129 366.376C630.855 383.671 609.764 391.165 592.788 395.521Z" fill="#FD4E2B"/>
<path fill-rule="evenodd" clip-rule="evenodd" d="M715.318 355.019C708.863 362.476 703.41 372.633 693.515 373.31C683.192 374.017 674.288 366.178 667.448 358.295C660.937 350.793 658.501 341.364 657.284 331.556C655.771 319.366 651.346 305.092 659.753 296.293C668.255 287.393 682.88 290.178 695.178 291.89C705.902 293.383 716.95 296.549 723.583 305.182C729.756 313.215 729.183 324.103 727.541 334.008C726.157 342.351 720.826 348.657 715.318 355.019Z" fill="#FD4E2B"/>
</g>
</svg>
