<svg width="984" height="400" viewBox="0 0 984 400" fill="none" xmlns="http://www.w3.org/2000/svg">
<mask id="mask0_487_1276" style="mask-type:alpha" maskUnits="userSpaceOnUse" x="0" y="0" width="984" height="400">
<rect width="984" height="400" fill="#FD4E2B"/>
</mask>
<g mask="url(#mask0_487_1276)">
<path d="M745.404 -165.984L610.088 29.057C666.561 54.2004 715.258 83.4972 756.845 124.375C743.476 122.204 730.378 120.562 717.408 119.214C583.965 105.34 442.181 175.721 387.776 297.916L387.873 297.892C387.489 298.627 387.125 299.379 386.783 300.148C377.901 320.096 386.927 343.491 406.942 352.403C414.415 355.73 423.605 353.787 432.185 350.046C443.687 345.033 460.312 352.435 464.283 364.337C467.245 373.217 471.95 381.346 479.423 384.673C487.018 388.055 496.385 385.993 505.084 382.133C516.392 377.117 532.783 384.414 536.621 396.174C539.574 405.222 544.309 413.563 551.904 416.944C559.497 420.325 568.862 418.264 577.56 414.405C588.869 409.388 605.266 416.688 609.105 428.45C612.057 437.496 616.792 445.834 624.385 449.215C631.98 452.596 641.347 450.534 650.047 446.674C661.354 441.658 677.745 448.956 681.583 460.715C684.545 469.595 689.387 478.155 696.86 481.482C716.875 490.393 740.301 481.446 749.182 461.498C758.064 441.55 749.044 418.157 729.029 409.246C721.435 405.864 712.061 407.923 703.362 411.783C692.054 416.8 675.669 409.505 671.831 397.745C668.878 388.698 664.143 380.357 656.548 376.975C648.955 373.594 639.59 375.655 630.893 379.514C619.583 384.531 603.186 377.231 599.347 365.469C596.395 356.423 591.66 348.085 584.067 344.705C576.472 341.323 567.105 343.385 558.406 347.245C547.098 352.261 530.707 344.963 526.869 333.204C523.916 324.156 519.181 315.815 511.586 312.434C503.991 309.053 494.624 311.114 485.925 314.974C474.617 319.991 458.226 312.693 454.388 300.933C453.214 297.336 451.758 293.85 449.953 290.743C544.82 290.538 666.941 331.972 770.852 412.827C809.469 210.013 857.683 107.088 981.712 -60.773C860.706 -18.2411 806.259 -44.6171 745.404 -165.984Z" fill="#FFED46"/>
<path d="M512.819 194.561C513.397 196.568 513.974 198.576 514.548 200.585M514.548 200.585C518.201 213.371 521.753 226.193 525.001 239.09M514.548 200.585C509.087 203.533 504.167 206.954 500.35 211.092C494.878 217.024 500.829 225.601 505.098 230.223C509.706 235.212 513.71 240.433 517.258 245.907M514.548 200.585C526.719 194.015 541.574 189.801 552.874 185.27C556.495 183.817 572.606 173.184 570.131 182.714C566.012 198.577 540.579 224.806 525.001 239.09M525.001 239.09C527.043 247.198 528.964 255.335 530.714 263.512C531.456 266.974 535.518 284.43 530.689 272.386C526.905 262.948 522.597 254.142 517.258 245.907M525.001 239.09C521.971 241.869 519.313 244.196 517.258 245.907M517.258 245.907C512.244 250.08 510.817 250.584 516.31 245.033M590.41 166.256C590.826 175.075 591.048 183.878 591.143 192.677M591.143 192.677C591.321 209.273 591.044 225.855 590.748 242.501C590.741 242.881 590.726 243.282 590.706 243.699M591.143 192.677C587.723 209.468 589.649 228.995 590.706 243.699M591.143 192.677C592.873 184.183 595.971 176.39 601.241 170.275C609.696 160.466 631.421 151.326 637.353 169.194C641.166 180.68 632.405 189.8 622.011 191.593C617.218 192.419 612.125 191.602 607.425 192.577C603.798 193.33 613.802 208.844 613.809 208.857C623.357 226.881 632.465 244.953 638.669 264.492C643.753 280.504 635.965 258.903 634.516 254.853M590.706 243.699C590.472 248.398 589.504 255.237 591.293 259.442C593.312 264.188 591.091 249.095 590.723 243.936C590.717 243.857 590.711 243.778 590.706 243.699ZM658.515 186.275C660.461 210.668 660.989 234.512 660.555 258.943C660.234 277.011 659.857 261.567 658.992 253.197M681.566 169.545C682.441 165.417 683.148 152.277 683.46 163.69C684.167 189.613 683.381 215.29 682.42 241.082M682.42 241.082C682.155 248.19 681.877 255.307 681.612 262.44C681.604 262.661 681.021 273.608 680.102 273.242C677.724 272.294 681.086 250.556 681.285 249.042C681.635 246.386 682.016 243.733 682.42 241.082ZM682.42 241.082C686.098 216.961 691.713 192.985 693.356 168.614C693.601 164.972 692.929 152.916 695.606 163.905C702.009 190.191 706.201 217.342 709.91 244.136C710.233 246.466 710.423 255.852 713.066 257.395C714.367 258.155 721.836 229.219 721.956 228.772C729.305 201.415 738.123 174.234 744.698 146.73M746.346 178.953C755.737 175.646 818.791 162.884 818.699 168.059M777.579 170.626C769.353 202.731 758.386 235.041 752.729 267.776C752.373 269.835 749.278 283.37 753.321 277.497M411.597 330.084C406.106 319.887 404.243 299.464 420.163 297.586C427.837 296.68 433.549 302.525 436.956 308.736C437.498 309.725 437.917 310.717 438.218 311.703M438.218 311.703C440.403 318.856 436.374 325.643 428.321 328.044C424.875 329.072 423.175 322.872 423.664 320.532C424.976 314.252 431.92 311.905 438.218 311.703ZM438.218 311.703C440.554 311.628 442.8 311.848 444.639 312.271C453.506 314.315 459.986 320.661 464.491 328.316C466.377 331.521 467.609 334.961 468.74 338.48C469.466 340.739 469.971 344.159 471.596 346.027C473.108 347.766 478.893 342.446 480.468 341.846C483.591 340.656 486.961 340.178 490.176 340.548M490.176 340.548C494.053 340.994 497.704 342.673 500.422 345.823C502.225 347.912 504.019 350.691 504.739 353.545M490.176 340.548C486.655 345.245 487.209 353.802 488.763 358.503C491.286 366.139 498.56 366.941 503.414 360.848C505.176 358.636 505.375 356.061 504.739 353.545M490.176 340.548C491.006 339.441 492.062 338.548 493.386 337.97C500.412 334.907 506.405 342.054 506.779 348.509C506.896 350.514 505.982 352.293 504.739 353.545M504.739 353.545C502.104 356.2 497.99 356.479 499.097 351.5M549.883 393.72C548.423 382.36 548.54 370.925 560.252 365.472C566.26 362.674 573.379 360.881 578.37 366.457C579.577 367.805 580.566 369.393 581.359 371.114M581.359 371.114C583.16 375.023 583.945 379.615 583.945 383.624C583.945 391.459 575.323 398.175 569.362 390.389C562.44 381.348 569.038 367.529 581.022 371.013C581.135 371.046 581.248 371.079 581.359 371.114ZM581.359 371.114C590.914 374.098 592.941 383.641 598.971 390.389C605.146 397.3 615.144 394.953 623.31 395.828C629.995 396.544 637.897 400.366 642.148 406.196M642.148 406.196C644.709 409.706 645.945 413.945 644.794 418.672C643.945 422.159 640.676 426.508 636.976 427.34C633.481 428.127 633.986 419.642 634.12 418.06C634.583 412.587 637.835 408.479 642.148 406.196ZM642.148 406.196C648.137 403.025 656.171 403.373 661.621 408.474C664.674 411.331 667.14 416.955 667.33 422.118M667.33 422.118C667.515 427.163 665.526 431.767 659.786 432.915C656.565 433.559 655.429 430.053 656.284 427.51C657.76 423.123 662.883 422.241 667.33 422.118ZM667.33 422.118C668.634 422.082 669.879 422.111 670.957 422.137L671.071 422.139C681.819 422.391 699.552 425.302 702.409 438.059M702.409 438.059C702.475 438.356 702.534 438.659 702.584 438.966C703.063 441.909 702.641 444.823 701.054 447.363C699.374 450.052 698.804 446.469 698.844 444.983C698.941 441.426 700.336 439.232 702.409 438.059ZM702.409 438.059C707.655 435.092 717.245 438.672 721.144 443.283C723.057 445.545 724.437 449.52 722.878 452.326C721.348 455.08 717.096 454.973 714.414 454.773C706.707 454.2 707.899 448.592 711.422 443.895M586.112 289.85C615.561 293.432 645.484 292.045 675.017 295.263C696.779 297.635 719.664 301.624 740.22 309.504C741.602 310.034 745.3 311.045 744.024 311.796C738.891 314.815 725.927 313.602 720.81 313.942C704.788 315.006 688.767 316.147 672.725 316.868C670.23 316.98 662.854 317.5 665.312 317.941C689.344 322.254 714.886 321.007 738.221 328.914C752.946 333.903 744.946 344.356 735.148 349.738C733.513 350.636 729.638 351.694 728.223 353.054C727.552 353.699 739.181 357.167 739.44 357.248C744.638 358.867 756.775 361.86 753.778 368.855M455.315 235.425C452.657 242.956 449.897 249.582 444.586 255.615C443.539 256.804 435.117 265.977 436.344 266.1C450.191 267.485 464.3 263.633 478.139 266.149M894.044 -7.86689C897.48 -13.0417 898.044 -17.7354 890.801 -19.5718C885.799 -20.8397 875.147 -22.4841 873.997 -14.8725C872.882 -7.48339 880.873 -1.17533 881.269 6.08642C881.416 8.78238 880.432 10.7873 878.98 12.971C876.821 16.2164 878.407 14.5215 880.583 12.8751M898.317 -11.8535C903.871 -17.1022 910.234 -13.8392 913.395 -7.31657C916.918 -0.0477985 911.2 6.31273 904.172 7.62156C898.594 8.66016 893.474 4.46492 888.009 6.78167C883.818 8.55827 879.943 11.5681 877.386 15.2941M702.43 0.013883C702.929 9.36086 703.68 18.6711 704.412 28.0027C704.901 34.2413 704.98 40.7711 708.319 46.2797C713.519 54.861 724.38 55.7156 733.526 55.7655C739.826 55.7999 745.814 56.3535 751.617 59.0621C757.249 61.6903 761.235 65.8013 765.561 70.0989C769.957 74.4653 776.094 75.0369 781.907 76.2844C786.826 77.3403 791.156 79.9744 796.035 78.5708M701.534 1.52743C693.568 -1.4872 688.719 -8.65962 686.018 -16.5916C682.874 -25.8242 687.203 -32.7178 692.024 -40.3649C697.018 -48.2865 702.372 -55.8268 708.066 -63.2621C714.73 -71.962 721.774 -81.6524 731.727 -86.8372C740.796 -91.561 751.009 -91.6419 760.297 -87.6013M750.956 -61.207C754.905 -58.4306 756.736 -55.2216 758.041 -50.5101C759.589 -44.9206 760.962 -38.0149 759.065 -32.3236C757.33 -27.1145 753.094 -22.467 749.259 -18.7168C745.559 -15.0975 741.192 -11.1377 736.088 -9.68077C729.897 -7.91408 723.556 -9.56976 717.684 -11.712C715.039 -12.6768 711.928 -13.1343 711.342 -16.0968M753.01 50.5727C754.922 38.9922 763.3 27.9935 770.728 19.3886C781.274 7.16978 795.221 0.689692 810.616 -3.26071C817.436 -5.01053 826.676 -7.61174 833.782 -5.58239C839.663 -3.90304 840.413 -0.578465 840.961 4.83811M792.201 25.0288C792.408 24.9465 792.615 24.8644 792.823 24.7826M792.823 24.7826C801.123 21.507 809.535 18.5762 817.852 15.3541C818.556 15.0814 819.561 14.3422 819.054 15.5071C818.024 17.8758 816.539 19.9747 815.119 22.1232C812.245 26.4712 810.208 29.5011 804.559 29.7441C800.747 29.9081 795.017 28.2293 792.823 24.7826ZM792.823 24.7826C792.767 24.6947 792.713 24.6057 792.662 24.5156M821.466 -3.40485C822.964 0.886166 824.664 6.42804 829.898 7.08457C834.761 7.69464 840.085 5.88345 844.885 5.11778M760.286 40.413C764.54 41.2996 771.407 43.1022 773.112 47.7907C773.948 50.0915 771.195 54.8558 772.35 55.8932M794.943 58.108C796.053 54.978 796.988 48.9229 799.419 46.3599C801.091 44.5976 805.755 45.4447 807.929 45.0915C813.874 44.1261 817.866 39.9234 822.104 36.0291C825.717 32.7091 829.788 29.4261 831.769 24.8728M815.621 70.197C822.729 64.4702 828.706 58.1713 835.16 51.7822C839.567 47.4194 845.157 43.6585 847.995 37.9595C852.413 29.0862 851.474 18.721 850.966 9.19069M715.291 -45.6573C722.215 -45.1836 728.645 -43.8494 735.231 -41.6779C738.378 -40.6402 741.959 -39.8759 742.7 -36.4465M725.268 -27.2513C726.666 -37.5639 730.159 -48.3495 735.644 -57.197M762.846 -1.38946C774.633 -11.09 790.637 -15.549 805.049 -19.6682L805.26 -19.7286C812.606 -21.8284 820.194 -23.9974 827.874 -23.5874M855.649 79.4127C839.781 91.3136 822.205 99.3299 803.463 105.721C795.534 108.425 788.107 110.465 779.742 110.465C777.74 110.465 783.587 111.583 785.511 112.137C793.136 114.329 800.801 116.486 808.261 119.199C815.072 121.676 829.728 126.421 831.389 134.725" stroke="#FD4E2B" stroke-width="4" stroke-linecap="round"/>
</g>
</svg>
