<svg width="984" height="400" viewBox="0 0 984 400" fill="none" xmlns="http://www.w3.org/2000/svg">
<mask id="mask0_487_1263" style="mask-type:alpha" maskUnits="userSpaceOnUse" x="0" y="0" width="984" height="400">
<rect width="984" height="400" fill="#FD4E2B"/>
</mask>
<g mask="url(#mask0_487_1263)">
<path d="M595.884 -44.0427C467.009 53.5699 567.961 169.144 621.223 177.892L767.184 -11.4908L616.847 -119.349L595.884 -44.0427Z" fill="#FFED46"/>
<path d="M838.595 -59.3028L774.144 126.87L1058.38 195.572C1038.47 69.0973 1066.42 16.1461 1123.66 -74.9109C1068.46 -33.8781 1037.3 -28.3795 981.125 -67.1068C926.287 -31.8217 895.083 -29.9183 838.595 -59.3028Z" fill="#FFED46"/>
<path d="M726.856 280.95L725.224 317.697L837.879 304.679L804.513 261.152L869.183 252.169L867.815 186.286L364.532 275.941L352.207 356.711L424.648 345.665L413.857 378.142L519.347 365.326L498.512 323.031L571.51 312.364L564.046 349.9L681.94 320.681L662.998 297.466L726.856 280.95Z" fill="#FFED46"/>
<path d="M582.612 392.979L599.977 370.182L659.64 397.185L626.937 439.468L624.375 415.933L590.946 445.026L600.453 401.054L586.801 412.141L582.612 392.979Z" fill="#FFED46"/>
<path d="M784.249 424.969L749.387 397.038L810.162 343.835L855.516 390.209L802.941 389.669L835.359 425.715L783.831 405.776L784.249 424.969Z" fill="#FFED46"/>
<path d="M1016.31 293.874L1011.56 266.683L947.139 242.964L937.407 288.518L965.887 270.454L965.663 326.106L991.987 286.921L1001.42 305.23L1016.31 293.874Z" fill="#FFED46"/>
</g>
</svg>
