<svg width="390" height="390" viewBox="0 0 390 390" fill="none" xmlns="http://www.w3.org/2000/svg">
<mask id="mask0_487_1344" style="mask-type:alpha" maskUnits="userSpaceOnUse" x="0" y="0" width="390" height="390">
<rect width="390" height="390" fill="#FD4E2B"/>
</mask>
<g mask="url(#mask0_487_1344)">
<path d="M232.678 89.9556L155.212 201.614C187.542 216.008 215.421 232.78 239.228 256.182C231.575 254.939 224.076 253.999 216.651 253.227C140.257 245.285 59.0881 285.577 27.9421 355.532L27.9973 355.518C27.7773 355.939 27.5692 356.369 27.3733 356.809C22.2888 368.229 27.4557 381.623 38.9141 386.724C43.1923 388.629 48.4532 387.517 53.3655 385.375C59.9502 382.505 69.4679 386.743 71.7409 393.557C73.4366 398.64 76.1301 403.294 80.4084 405.199C84.7562 407.135 90.1188 405.954 95.0991 403.745C101.572 400.873 110.956 405.051 113.153 411.783C114.844 416.962 117.555 421.737 121.903 423.673C126.25 425.609 131.611 424.429 136.59 422.22C143.065 419.347 152.452 423.527 154.649 430.26C156.339 435.439 159.05 440.212 163.397 442.148C167.745 444.083 173.108 442.903 178.088 440.694C184.561 437.822 193.945 441.999 196.142 448.732C197.838 453.815 200.61 458.716 204.888 460.62C216.346 465.722 229.757 460.6 234.842 449.18C239.926 437.76 234.763 424.368 223.304 419.266C218.956 417.33 213.59 418.509 208.61 420.719C202.137 423.591 192.756 419.414 190.559 412.682C188.869 407.503 186.158 402.728 181.81 400.792C177.463 398.856 172.102 400.036 167.122 402.245C160.648 405.118 151.261 400.938 149.063 394.205C147.373 389.026 144.663 384.253 140.316 382.317C135.968 380.381 130.605 381.562 125.625 383.771C119.152 386.643 109.768 382.465 107.571 375.733C105.88 370.554 103.169 365.779 98.8212 363.843C94.4734 361.907 89.1108 363.087 84.1305 365.297C77.6572 368.169 68.2735 363.991 66.0763 357.259C65.4041 355.199 64.5706 353.204 63.5371 351.425C117.847 351.308 187.759 375.028 247.247 421.316C269.355 305.208 296.957 246.285 367.961 150.188C298.687 174.536 267.517 159.437 232.678 89.9556Z" fill="#FFED46"/>
<path d="M99.5273 296.362C99.8582 297.511 100.188 298.661 100.517 299.811M100.517 299.811C102.608 307.131 104.642 314.471 106.501 321.855M100.517 299.811C97.3907 301.499 94.5738 303.457 92.3888 305.826C89.256 309.222 92.6633 314.133 95.1073 316.779C97.745 319.634 100.037 322.624 102.068 325.757M100.517 299.811C107.485 296.05 115.989 293.638 122.458 291.043C124.531 290.212 133.754 284.125 132.338 289.58C129.979 298.662 115.419 313.677 106.501 321.855M106.501 321.855C107.67 326.496 108.77 331.155 109.772 335.836C110.196 337.818 112.522 347.811 109.758 340.916C107.591 335.513 105.125 330.472 102.068 325.757M106.501 321.855C104.766 323.446 103.245 324.778 102.068 325.757M102.068 325.757C99.1981 328.146 98.3812 328.435 101.526 325.257M143.947 280.158C144.185 285.207 144.312 290.247 144.366 295.284M144.366 295.284C144.468 304.785 144.31 314.278 144.14 323.808C144.136 324.025 144.128 324.254 144.116 324.493M144.366 295.284C142.408 304.896 143.511 316.075 144.116 324.493M144.366 295.284C145.357 290.421 147.13 285.96 150.148 282.459C154.988 276.843 167.425 271.611 170.821 281.84C173.004 288.416 167.988 293.637 162.038 294.663C159.294 295.136 156.378 294.668 153.687 295.227C151.611 295.658 157.339 304.539 157.342 304.547C162.809 314.865 168.023 325.211 171.574 336.397C174.485 345.563 170.027 333.197 169.197 330.879M144.116 324.493C143.982 327.183 143.428 331.098 144.452 333.506C145.608 336.223 144.337 327.582 144.126 324.629C144.123 324.584 144.119 324.538 144.116 324.493ZM182.936 291.619C184.05 305.583 184.352 319.234 184.104 333.22C183.92 343.564 183.704 334.723 183.209 329.93M196.132 282.041C196.633 279.678 197.038 272.155 197.216 278.689C197.621 293.53 197.171 308.23 196.621 322.995M196.621 322.995C196.469 327.064 196.31 331.139 196.159 335.222C196.154 335.349 195.82 341.616 195.294 341.406C193.933 340.863 195.857 328.418 195.972 327.552C196.172 326.032 196.39 324.513 196.621 322.995ZM196.621 322.995C198.727 309.186 201.942 295.46 202.882 281.508C203.022 279.423 202.637 272.521 204.17 278.812C207.835 293.861 210.236 309.404 212.359 324.743C212.544 326.077 212.652 331.45 214.165 332.334C214.91 332.769 219.186 316.204 219.255 315.948C223.462 300.287 228.511 284.726 232.274 268.98M233.218 287.427C238.594 285.534 274.691 278.228 274.639 281.19M251.098 282.66C246.389 301.039 240.111 319.537 236.872 338.277C236.668 339.456 234.896 347.205 237.211 343.842M41.5788 373.947C38.4356 368.11 37.3691 356.418 46.483 355.343C50.8763 354.824 54.1464 358.17 56.0967 361.726C56.4073 362.292 56.6471 362.86 56.8193 363.424M56.8193 363.424C58.07 367.52 55.7638 371.405 51.1536 372.78C49.1804 373.368 48.2075 369.818 48.4875 368.479C49.2386 364.884 53.2136 363.54 56.8193 363.424ZM56.8193 363.424C58.1563 363.381 59.4426 363.507 60.4949 363.75C65.5715 364.92 69.2809 368.553 71.8601 372.935C72.9398 374.77 73.6452 376.74 74.2927 378.754C74.7082 380.047 74.9974 382.005 75.9274 383.074C76.7931 384.07 80.105 381.024 81.0067 380.681C82.7945 380 84.7238 379.726 86.5641 379.938M86.5641 379.938C88.7838 380.193 90.8741 381.154 92.4303 382.958C93.4622 384.153 94.4891 385.744 94.9017 387.378M86.5641 379.938C84.5489 382.627 84.866 387.526 85.7552 390.217C87.1997 394.588 91.3641 395.048 94.1429 391.559C95.1517 390.293 95.2654 388.819 94.9017 387.378M86.5641 379.938C87.0393 379.304 87.6442 378.793 88.4019 378.462C92.4242 376.708 95.8553 380.8 96.0695 384.495C96.1361 385.643 95.6129 386.662 94.9017 387.378M94.9017 387.378C93.3929 388.898 91.038 389.058 91.6713 386.208M120.746 410.378C119.91 403.875 119.977 397.328 126.682 394.206C130.121 392.604 134.197 391.578 137.054 394.771C137.745 395.542 138.312 396.451 138.765 397.437M138.765 397.437C139.796 399.674 140.246 402.303 140.246 404.598C140.246 409.084 135.31 412.928 131.897 408.471C127.934 403.295 131.712 395.384 138.572 397.378C138.637 397.397 138.702 397.417 138.765 397.437ZM138.765 397.437C144.236 399.144 145.396 404.608 148.848 408.471C152.383 412.427 158.106 411.084 162.782 411.585C166.609 411.995 171.132 414.183 173.566 417.52M173.566 417.52C175.032 419.53 175.74 421.956 175.081 424.663C174.595 426.659 172.723 429.148 170.605 429.625C168.604 430.075 168.894 425.218 168.97 424.312C169.235 421.179 171.097 418.827 173.566 417.52ZM173.566 417.52C176.995 415.705 181.594 415.904 184.714 418.824C186.462 420.46 187.874 423.68 187.982 426.635M187.982 426.635C188.088 429.524 186.95 432.159 183.663 432.817C181.82 433.185 181.169 431.178 181.659 429.722C182.504 427.211 185.437 426.706 187.982 426.635ZM187.982 426.635C188.729 426.615 189.442 426.632 190.059 426.646L190.124 426.648C196.277 426.791 206.429 428.458 208.064 435.762M208.064 435.762C208.102 435.932 208.136 436.105 208.165 436.281C208.439 437.966 208.197 439.634 207.289 441.088C206.327 442.627 206.001 440.576 206.024 439.725C206.079 437.689 206.878 436.433 208.064 435.762ZM208.064 435.762C211.068 434.063 216.558 436.112 218.79 438.752C219.885 440.047 220.675 442.323 219.783 443.929C218.907 445.506 216.473 445.444 214.937 445.33C210.525 445.002 211.208 441.792 213.224 439.103M141.486 350.914C158.345 352.964 175.476 352.171 192.383 354.013C204.841 355.371 217.942 357.654 229.711 362.165C230.502 362.469 232.619 363.048 231.888 363.478C228.95 365.206 221.528 364.512 218.599 364.706C209.427 365.315 200.255 365.969 191.071 366.381C189.643 366.445 185.42 366.743 186.827 366.995C200.585 369.465 215.208 368.751 228.566 373.277C236.996 376.134 232.416 382.118 226.807 385.199C225.871 385.713 223.653 386.319 222.843 387.097C222.458 387.467 229.116 389.452 229.264 389.498C232.24 390.425 239.189 392.139 237.472 396.143M66.6071 319.756C65.0854 324.068 63.5054 327.861 60.4649 331.315C59.8652 331.996 55.0439 337.247 55.7465 337.317C63.6736 338.11 71.7507 335.905 79.6732 337.345M317.773 180.476C319.74 177.513 320.062 174.826 315.916 173.775C313.053 173.049 306.954 172.107 306.296 176.465C305.658 180.695 310.233 184.306 310.459 188.464C310.543 190.007 309.98 191.155 309.149 192.405C307.913 194.263 308.821 193.293 310.066 192.35M320.219 178.193C323.399 175.189 327.041 177.057 328.851 180.791C330.867 184.952 327.594 188.593 323.571 189.342C320.378 189.937 317.446 187.535 314.318 188.862C311.919 189.879 309.7 191.602 308.236 193.735M208.077 184.987C208.362 190.338 208.792 195.668 209.211 201.01C209.491 204.582 209.537 208.32 211.448 211.474C214.425 216.386 220.643 216.876 225.879 216.904C229.485 216.924 232.913 217.241 236.236 218.791C239.46 220.296 241.741 222.65 244.218 225.11C246.735 227.61 250.248 227.937 253.576 228.651C256.392 229.255 258.871 230.763 261.664 229.96M207.563 185.854C203.003 184.128 200.227 180.022 198.681 175.481C196.881 170.195 199.359 166.249 202.119 161.871C204.978 157.336 208.043 153.019 211.303 148.763C215.118 143.782 219.151 138.234 224.849 135.266C230.04 132.562 235.887 132.516 241.204 134.829M235.857 149.939C238.118 151.529 239.166 153.366 239.913 156.063C240.799 159.263 241.585 163.216 240.5 166.474C239.506 169.457 237.081 172.117 234.886 174.264C232.767 176.336 230.268 178.603 227.345 179.437C223.801 180.449 220.171 179.501 216.809 178.274C215.295 177.722 213.514 177.46 213.179 175.764M237.033 213.931C238.127 207.302 242.924 201.005 247.176 196.079C253.214 189.084 261.198 185.374 270.011 183.113C273.915 182.111 279.205 180.622 283.274 181.783C286.64 182.745 287.07 184.648 287.384 187.749M259.469 199.308C259.588 199.261 259.706 199.214 259.825 199.167M259.825 199.167C264.577 197.292 269.392 195.614 274.154 193.769C274.557 193.613 275.132 193.19 274.842 193.857C274.252 195.213 273.402 196.414 272.589 197.644C270.944 200.134 269.778 201.868 266.544 202.007C264.362 202.101 261.081 201.14 259.825 199.167ZM259.825 199.167C259.793 199.117 259.762 199.066 259.733 199.014M276.223 183.03C277.081 185.487 278.054 188.659 281.05 189.035C283.834 189.384 286.882 188.347 289.63 187.909M241.198 208.115C243.634 208.623 247.565 209.655 248.541 212.339C249.02 213.656 247.444 216.383 248.105 216.977M261.039 218.245C261.674 216.453 262.209 212.987 263.601 211.52C264.559 210.511 267.228 210.996 268.473 210.793C271.877 210.241 274.162 207.835 276.588 205.605C278.656 203.705 280.987 201.825 282.121 199.219M272.877 225.166C276.946 221.887 280.367 218.281 284.062 214.624C286.586 212.126 289.786 209.973 291.41 206.71C293.94 201.631 293.402 195.697 293.111 190.241M215.439 158.841C219.403 159.112 223.084 159.876 226.854 161.119C228.656 161.713 230.706 162.151 231.131 164.114M221.151 169.378C221.951 163.474 223.951 157.3 227.091 152.235M242.664 184.184C249.411 178.63 258.574 176.078 266.824 173.719L266.945 173.685C271.151 172.483 275.495 171.241 279.892 171.476M295.792 230.442C286.708 237.255 276.646 241.844 265.916 245.503C261.377 247.051 257.125 248.219 252.337 248.219C251.191 248.219 254.538 248.859 255.639 249.176C260.004 250.431 264.392 251.666 268.663 253.219C272.562 254.637 280.953 257.353 281.904 262.107" stroke="#FD4E2B" stroke-width="3" stroke-linecap="round"/>
</g>
</svg>
