<svg width="390" height="390" viewBox="0 0 390 390" fill="none" xmlns="http://www.w3.org/2000/svg">
<mask id="mask0_487_1352" style="mask-type:alpha" maskUnits="userSpaceOnUse" x="0" y="0" width="390" height="390">
<rect width="390" height="390" fill="#FD4E2B"/>
</mask>
<g mask="url(#mask0_487_1352)">
<path d="M143.749 373.441L105.663 457.672L21.1689 431.528L151.156 145.994C198.695 194.637 284.242 177.022 307.144 111.515L368.229 333.251L273.365 312.02L235.279 396.252L143.749 373.441Z" fill="#FFED46"/>
<path fill-rule="evenodd" clip-rule="evenodd" d="M47.2921 417.468C43.1024 408.965 51.0598 399.668 55.3989 391.14C58.6903 384.671 63.3322 379.762 68.8806 375.039C76.8619 368.245 83.6507 357.294 94.0506 358.238C104.995 359.231 114.685 368.856 117.298 379.433C119.661 388.999 108.6 396.167 105.766 405.666C102.903 415.265 109.408 428.58 100.983 434.126C92.6225 439.63 82.6326 430.09 73.1394 427.145C63.9979 424.309 51.4943 425.997 47.2921 417.468Z" fill="#FD4E2B"/>
<path fill-rule="evenodd" clip-rule="evenodd" d="M146.665 211.39C149.683 200.674 157.156 190.549 167.742 187.156C177.675 183.972 186.852 191.883 196.676 195.362C206.773 198.938 222.101 197.18 225.116 207.476C228.198 218.002 212.395 224.076 208.033 234.15C204.174 243.064 208.987 255.005 201.741 261.466C193.217 269.065 180.082 272.854 169.572 268.442C159.235 264.102 156.809 251.264 152.626 240.846C148.747 231.186 143.841 221.421 146.665 211.39Z" fill="#FD4E2B"/>
<path fill-rule="evenodd" clip-rule="evenodd" d="M309.383 193.248C318.559 202.698 308.988 218.337 312.186 231.1C315.172 243.02 330.704 251.675 326.947 263.361C323.099 275.335 308.093 279.27 295.809 282.046C284.241 284.66 272.232 283.733 261.786 278.088C251.166 272.349 242.583 263.101 239.289 251.503C235.99 239.89 239.483 228.066 244.459 217.084C250.058 204.726 256.036 191.085 268.785 186.404C282.162 181.493 299.443 183.012 309.383 193.248Z" fill="#FD4E2B"/>
<path fill-rule="evenodd" clip-rule="evenodd" d="M162.461 355.072C152.852 357.538 143.775 352.803 134.23 350.006C122.932 346.695 109.076 347.42 102.605 337.532C95.606 326.836 95.9788 311.924 101.951 300.678C107.506 290.217 119.82 286.002 131.348 283.407C140.631 281.317 150.301 283.008 158.478 287.952C165.455 292.171 166.946 300.824 171.437 307.649C177.839 317.376 192.075 324.299 189.913 335.719C187.74 347.203 173.734 352.18 162.461 355.072Z" fill="#FD4E2B"/>
<path fill-rule="evenodd" clip-rule="evenodd" d="M243.826 328.178C239.539 333.129 235.919 339.874 229.348 340.324C222.493 340.793 216.58 335.587 212.038 330.353C207.715 325.371 206.097 319.111 205.289 312.598C204.284 304.503 201.346 295.025 206.929 289.181C212.575 283.272 222.286 285.121 230.452 286.258C237.573 287.25 244.909 289.352 249.314 295.084C253.413 300.418 253.033 307.649 251.942 314.225C251.023 319.766 247.483 323.953 243.826 328.178Z" fill="#FD4E2B"/>
</g>
</svg>
