<svg width="390" height="390" viewBox="0 0 390 390" fill="none" xmlns="http://www.w3.org/2000/svg">
<mask id="mask0_487_1331" style="mask-type:alpha" maskUnits="userSpaceOnUse" x="0" y="0" width="390" height="390">
<rect width="390" height="390" fill="#FD4E2B"/>
</mask>
<g mask="url(#mask0_487_1331)">
<path d="M130.866 185.897C69.7021 232.223 117.614 287.075 142.892 291.226L212.165 201.346L140.815 150.157L130.866 185.897Z" fill="#FFED46"/>
<path d="M246.056 178.654L215.468 267.012L350.364 299.617C340.918 239.593 354.183 214.462 381.345 171.247C355.148 190.721 340.359 193.33 313.7 174.951C287.674 191.697 272.865 192.6 246.056 178.654Z" fill="#FFED46"/>
<path d="M193.025 340.137L192.25 357.578L245.716 351.399L229.881 330.742L260.573 326.478L259.924 295.21L21.0667 337.76L15.2173 376.093L49.5976 370.851L44.4762 386.265L94.5416 380.182L84.6534 360.109L119.298 355.046L115.755 372.861L171.708 358.994L162.718 347.976L193.025 340.137Z" fill="#FFED46"/>
<path d="M124.567 393.306L132.809 382.487L161.124 395.302L145.603 415.37L144.387 404.2L128.522 418.008L133.034 397.138L126.555 402.401L124.567 393.306Z" fill="#FFED46"/>
<path d="M220.263 408.489L203.718 395.233L232.562 369.983L254.087 391.992L229.134 391.735L244.52 408.843L220.065 399.38L220.263 408.489Z" fill="#FFED46"/>
<path d="M330.399 346.271L328.142 333.367L297.57 322.109L292.952 343.73L306.468 335.156L306.362 361.569L318.855 342.971L323.331 351.661L330.399 346.271Z" fill="#FFED46"/>
</g>
</svg>
