<svg width="414" height="896" viewBox="0 0 414 896" fill="none" xmlns="http://www.w3.org/2000/svg">
<g clip-path="url(#clip0_446_1012)">
<rect width="414" height="896" fill="white"/>
<path d="M290.385 50.2745L125.578 287.858C194.341 318.474 253.635 354.149 304.269 403.932C287.99 401.29 272.04 399.292 256.247 397.652C93.7554 380.776 -78.9069 466.524 -145.177 615.368L-145.059 615.338C-145.527 616.234 -145.97 617.15 -146.387 618.086C-157.205 642.384 -146.219 670.879 -121.848 681.729C-112.748 685.781 -101.558 683.412 -91.1083 678.855C-77.1015 672.746 -56.8582 681.759 -52.0253 696.256C-48.42 707.07 -42.6922 716.971 -33.5926 721.023C-24.3452 725.14 -12.9383 722.627 -2.34441 717.925C11.4255 711.813 31.3839 720.699 36.0556 735.021C39.6497 746.041 45.4149 756.199 54.6624 760.316C63.9083 764.433 75.312 761.922 85.9037 757.22C99.6761 751.107 119.642 759.996 124.314 774.321C127.907 785.339 133.672 795.494 142.917 799.61C152.165 803.727 163.572 801.214 174.166 796.512C187.936 790.4 207.894 799.286 212.566 813.609C216.171 824.423 222.066 834.849 231.165 838.9C255.536 849.751 284.063 838.849 294.881 814.55C305.7 790.252 294.721 761.761 270.35 750.911C261.102 746.793 249.688 749.303 239.094 754.005C225.324 760.117 205.373 751.235 200.701 736.912C197.107 725.893 191.342 715.734 182.095 711.617C172.849 707.5 161.445 710.012 150.853 714.713C137.081 720.827 117.115 711.937 112.443 697.612C108.85 686.595 103.085 676.44 93.8395 672.323C84.5921 668.206 73.1852 670.719 62.5913 675.421C48.8214 681.533 28.863 672.647 24.1913 658.324C20.5972 647.305 14.8319 637.147 5.58449 633.03C-3.66297 628.912 -15.0699 631.425 -25.6638 636.128C-39.4337 642.24 -59.3921 633.354 -64.0637 619.031C-65.4928 614.65 -67.2651 610.404 -69.463 606.621C46.0572 606.354 194.757 656.801 321.277 755.266C368.335 508.231 427.063 382.859 578.121 178.383C430.764 230.207 364.468 198.09 290.385 50.2745Z" fill="#FFED46"/>
</g>
<defs>
<clipPath id="clip0_446_1012">
<rect width="414" height="896" fill="white"/>
</clipPath>
</defs>
</svg>
