<svg width="1920" height="1080" viewBox="0 0 1920 1080" fill="none" xmlns="http://www.w3.org/2000/svg">
<g clip-path="url(#clip0_366_134)">
<rect width="1920" height="1080" fill="white"/>
<path d="M1120.49 -307.265L806.518 145.357C937.519 203.682 1050.48 271.648 1146.94 366.488C1115.93 361.455 1085.54 357.65 1055.46 354.525C745.894 322.374 416.955 485.732 290.704 769.295L290.928 769.239C290.037 770.945 289.193 772.69 288.399 774.473C267.789 820.764 288.719 875.049 335.148 895.72C352.484 903.439 373.803 898.926 393.71 890.245C420.394 878.607 458.96 895.777 468.167 923.395C475.035 943.998 485.947 962.86 503.283 970.579C520.9 978.422 542.631 973.635 562.814 964.676C589.047 953.032 627.07 969.961 635.97 997.247C642.817 1018.24 653.8 1037.59 671.418 1045.44C689.032 1053.28 710.757 1048.49 730.935 1039.54C757.173 1027.89 795.209 1044.83 804.111 1072.12C810.957 1093.11 821.938 1112.45 839.552 1120.3C857.17 1128.14 878.901 1123.35 899.084 1114.39C925.317 1102.75 963.339 1119.68 972.239 1146.96C979.108 1167.57 990.338 1187.43 1007.67 1195.15C1054.1 1215.82 1108.45 1195.05 1129.06 1148.76C1149.67 1102.47 1128.75 1048.19 1082.32 1027.52C1064.71 1019.67 1042.96 1024.45 1022.78 1033.41C996.545 1045.06 958.537 1028.14 949.637 1000.85C942.789 979.856 931.806 960.503 914.189 952.659C896.574 944.817 874.849 949.602 854.671 958.558C828.433 970.205 790.397 953.27 781.495 925.979C774.65 904.99 763.668 885.643 746.054 877.801C728.437 869.957 706.705 874.745 686.523 883.703C660.29 895.347 622.267 878.418 613.367 851.132C606.52 830.139 595.537 810.786 577.919 802.942C560.302 795.099 538.571 799.886 518.388 808.845C492.155 820.489 454.132 803.56 445.232 776.274C442.51 767.927 439.133 759.839 434.946 752.631C655.024 752.124 938.312 848.229 1179.34 1035.81C1268.99 565.188 1380.88 326.342 1668.66 -63.2052C1387.93 35.5253 1261.63 -25.6607 1120.49 -307.265Z" fill="#FFED46"/>
</g>
<defs>
<clipPath id="clip0_366_134">
<rect width="1920" height="1080" fill="white"/>
</clipPath>
</defs>
</svg>
