<svg width="1366" height="768" viewBox="0 0 1366 768" fill="none" xmlns="http://www.w3.org/2000/svg">
<g clip-path="url(#clip0_446_1005)">
<rect width="1366" height="768" fill="white"/>
<path d="M805.338 -235.996L567.744 106.516C666.876 150.652 752.358 202.084 825.353 273.852C801.885 270.044 778.891 267.164 756.123 264.8C521.868 240.47 272.95 364.088 177.412 578.668L177.582 578.626C176.907 579.917 176.269 581.237 175.668 582.587C160.072 617.617 175.91 658.695 211.044 674.338C224.163 680.179 240.295 676.764 255.36 670.195C275.553 661.388 304.736 674.381 311.703 695.28C316.901 710.871 325.159 725.145 338.277 730.986C351.608 736.921 368.053 733.298 383.326 726.519C403.177 717.708 431.95 730.518 438.685 751.167C443.866 767.053 452.178 781.698 465.509 787.633C478.839 793.568 495.279 789.947 510.548 783.169C530.403 774.356 559.186 787.171 565.922 807.823C571.103 823.706 579.413 838.346 592.742 844.281C606.074 850.216 622.518 846.593 637.791 839.814C657.642 831.003 686.415 843.813 693.15 864.462C698.348 880.052 706.846 895.082 719.964 900.923C755.098 916.566 796.224 900.849 811.82 865.819C827.417 830.789 811.588 789.716 776.454 774.073C763.122 768.137 746.667 771.755 731.394 778.534C711.543 787.346 682.781 774.541 676.046 753.892C670.865 738.006 662.553 723.361 649.222 717.426C635.892 711.491 619.452 715.112 604.183 721.89C584.328 730.703 555.545 717.888 548.808 697.235C543.628 681.353 535.318 666.713 521.989 660.778C508.657 654.842 492.213 658.465 476.94 665.244C457.089 674.056 428.316 661.245 421.581 640.597C416.399 624.711 408.088 610.066 394.756 604.13C381.425 598.195 364.98 601.818 349.708 608.597C329.856 617.408 301.083 604.598 294.348 583.949C292.288 577.633 289.733 571.513 286.565 566.058C453.104 565.674 667.476 638.4 849.873 780.352C917.714 424.214 1002.38 243.473 1220.15 -51.3091C1007.72 23.4032 912.14 -22.8981 805.338 -235.996Z" fill="#FFED46"/>
</g>
<defs>
<clipPath id="clip0_446_1005">
<rect width="1366" height="768" fill="white"/>
</clipPath>
</defs>
</svg>
