<svg width="360" height="640" viewBox="0 0 360 640" fill="none" xmlns="http://www.w3.org/2000/svg">
<g clip-path="url(#clip0_446_1014)">
<rect width="360" height="640" fill="white"/>
<path d="M239.439 36.0818L123.514 203.197C171.882 224.732 213.589 249.826 249.204 284.843C237.754 282.985 226.535 281.58 215.426 280.426C101.13 268.555 -20.3197 328.87 -66.9336 433.566L-66.8509 433.545C-67.1801 434.175 -67.4916 434.82 -67.7847 435.478C-75.3944 452.57 -67.6666 472.612 -50.5241 480.245C-44.1235 483.094 -36.2522 481.428 -28.9022 478.223C-19.0498 473.926 -4.81076 480.266 -1.41136 490.463C1.12464 498.07 5.15355 505.034 11.5541 507.884C18.0588 510.78 26.0823 509.012 33.534 505.704C43.2197 501.405 57.2583 507.656 60.5444 517.73C63.0725 525.481 67.1278 532.627 73.6324 535.523C80.1359 538.418 88.1572 536.652 95.6074 533.345C105.295 529.045 119.338 535.297 122.625 545.374C125.153 553.123 129.207 560.266 135.711 563.162C142.215 566.058 150.239 564.29 157.691 560.982C167.376 556.683 181.415 562.934 184.701 573.008C187.237 580.615 191.383 587.948 197.784 590.798C214.926 598.43 234.992 590.762 242.601 573.671C250.211 556.579 242.488 536.539 225.346 528.907C218.841 526.01 210.813 527.776 203.361 531.083C193.675 535.382 179.642 529.135 176.356 519.06C173.828 511.309 169.772 504.164 163.268 501.268C156.764 498.372 148.743 500.139 141.293 503.446C131.605 507.746 117.562 501.493 114.275 491.417C111.747 483.667 107.693 476.524 101.189 473.628C94.6848 470.732 86.6612 472.5 79.2095 475.808C69.5238 480.107 55.4852 473.857 52.1991 463.782C49.671 456.031 45.6158 448.886 39.1112 445.989C32.6065 443.093 24.583 444.861 17.1313 448.169C7.44555 452.468 -6.59308 446.218 -9.87912 436.143C-10.8843 433.061 -12.1309 430.075 -13.677 427.414C67.5795 427.226 172.174 462.71 261.168 531.97C294.268 358.206 335.577 270.02 441.831 126.193C338.181 162.646 291.549 140.055 239.439 36.0818Z" fill="#FFED46"/>
</g>
<defs>
<clipPath id="clip0_446_1014">
<rect width="360" height="640" fill="white"/>
</clipPath>
</defs>
</svg>
