<svg width="1288" height="1400" viewBox="0 0 1288 1400" fill="none" xmlns="http://www.w3.org/2000/svg">
<path d="M779.696 0.983455L488.33 419.773C609.58 473.959 714.112 537.05 803.328 625.009C774.612 620.308 746.475 616.745 718.614 613.812C431.955 583.639 127.101 734.51 9.81131 996.969L10.0187 996.917C9.19082 998.496 8.40706 1000.11 7.66956 1001.76C-11.4779 1044.61 7.837 1094.91 50.8106 1114.11C66.8559 1121.28 86.6062 1117.13 105.054 1109.12C129.783 1098.37 165.478 1114.33 173.969 1139.91C180.304 1159.01 190.386 1176.49 206.432 1183.66C222.738 1190.95 242.87 1186.54 261.573 1178.27C285.884 1167.52 321.077 1183.25 329.284 1208.53C335.599 1227.98 345.746 1245.92 362.053 1253.2C378.356 1260.49 398.483 1256.09 417.182 1247.82C441.497 1237.06 476.702 1252.8 484.911 1278.08C491.225 1297.53 501.37 1315.46 517.674 1322.75C533.98 1330.04 554.112 1325.63 572.816 1317.36C597.126 1306.61 632.319 1322.34 640.527 1347.62C646.862 1366.71 657.236 1385.12 673.282 1392.29C716.255 1411.49 766.614 1392.33 785.762 1349.48C804.909 1306.63 785.607 1256.34 742.634 1237.14C726.327 1229.85 706.182 1234.25 687.478 1242.52C663.168 1253.27 627.988 1237.55 619.781 1212.27C613.466 1192.81 603.319 1174.88 587.013 1167.59C570.709 1160.3 550.582 1164.71 531.883 1172.98C507.568 1183.73 472.363 1168 464.154 1142.71C457.84 1123.26 447.695 1105.33 431.392 1098.04C415.085 1090.76 394.953 1095.16 376.25 1103.43C351.939 1114.19 316.746 1098.46 308.539 1073.18C302.224 1053.72 292.077 1035.79 275.771 1028.5C259.464 1021.21 239.332 1025.62 220.629 1033.89C196.318 1044.64 161.125 1028.91 152.918 1003.63C150.407 995.896 147.29 988.401 143.421 981.72C347.246 981.533 609.488 1070.9 832.478 1244.94C916.111 809.191 1020.04 588.129 1287.06 227.721C1026.94 318.799 910.047 261.97 779.696 0.983455Z" fill="#FFED46"/>
</svg>
