<svg width="768" height="1024" viewBox="0 0 768 1024" fill="none" xmlns="http://www.w3.org/2000/svg">
<g clip-path="url(#clip0_446_1010)">
<rect width="768" height="1024" fill="white"/>
<path d="M518.285 -139.538L256.782 237.44C365.89 286.018 459.973 342.625 540.314 421.615C514.483 417.424 489.176 414.254 464.117 411.651C206.289 384.874 -67.6762 520.931 -172.827 757.104L-172.641 757.057C-173.383 758.478 -174.086 759.931 -174.747 761.416C-191.913 799.971 -174.481 845.183 -135.811 862.4C-121.373 868.829 -103.616 865.071 -87.0364 857.84C-64.8115 848.147 -32.6912 862.448 -25.0229 885.45C-19.3022 902.61 -10.2138 918.32 4.22453 924.748C18.8976 931.281 36.9971 927.294 53.8065 919.832C75.6554 910.134 107.324 924.234 114.736 946.96C120.439 964.444 129.587 980.563 144.26 987.096C158.931 993.628 177.025 989.643 193.831 982.183C215.684 972.483 247.363 986.587 254.777 1009.32C260.479 1026.8 269.625 1042.91 284.296 1049.44C298.969 1055.98 317.068 1051.99 333.878 1044.53C355.727 1034.83 387.395 1048.93 394.808 1071.66C400.528 1088.82 409.881 1105.36 424.32 1111.79C462.989 1129 508.253 1111.7 525.419 1073.15C542.585 1034.59 525.164 989.388 486.494 972.171C471.821 965.639 453.71 969.62 436.9 977.081C415.051 986.78 383.395 972.686 375.982 949.96C370.279 932.475 361.132 916.356 346.458 909.824C331.788 903.292 313.693 907.277 296.887 914.737C275.035 924.437 243.355 910.332 235.941 887.602C230.239 870.121 221.094 854.008 206.423 847.476C191.75 840.943 173.65 844.93 156.841 852.392C134.992 862.09 103.324 847.99 95.9111 825.264C90.2082 807.779 81.0605 791.661 66.3874 785.128C51.7143 778.595 33.6148 782.582 16.8053 790.044C-5.04356 799.742 -36.7118 785.642 -44.1244 762.916C-46.3919 755.964 -49.204 749.228 -52.6915 743.225C130.606 742.802 366.55 822.846 567.3 979.082C641.968 587.108 735.153 388.179 974.84 63.7339C741.026 145.964 635.833 95.0038 518.285 -139.538Z" fill="#FFED46"/>
</g>
<defs>
<clipPath id="clip0_446_1010">
<rect width="768" height="1024" fill="white"/>
</clipPath>
</defs>
</svg>
