<svg width="1400" height="900" viewBox="0 0 1400 900" fill="none" xmlns="http://www.w3.org/2000/svg">
<g clip-path="url(#clip0_445_984)">
<rect width="1400" height="900" fill="white"/>
<path d="M846.014 -294.274L560.463 117.372C679.605 170.417 782.34 232.23 870.069 318.484C841.864 313.907 814.229 310.446 786.865 307.604C505.327 278.364 206.166 426.934 91.3448 684.826L91.5484 684.775C90.7376 686.327 89.9701 687.914 89.2482 689.535C70.5037 731.636 89.5392 781.006 131.765 799.806C147.531 806.826 166.92 802.722 185.025 794.826C209.294 784.242 244.368 799.858 252.742 824.976C258.989 843.713 268.913 860.868 284.679 867.888C300.701 875.021 320.465 870.667 338.821 862.52C362.679 851.93 397.26 867.326 405.354 892.142C411.581 911.235 421.57 928.836 437.593 935.969C453.613 943.102 473.371 938.75 491.723 930.604C515.585 920.012 550.178 935.414 558.274 960.235C564.5 979.323 574.487 996.918 590.507 1004.05C606.529 1011.18 626.293 1006.83 644.649 998.683C668.507 988.093 703.087 1003.49 711.182 1028.31C717.429 1047.04 727.642 1065.11 743.408 1072.13C785.634 1090.93 835.06 1072.04 853.805 1029.94C872.549 987.836 853.526 938.473 811.3 919.672C795.277 912.539 775.501 916.886 757.145 925.034C733.287 935.624 698.719 920.234 690.625 895.418C684.398 876.325 674.409 858.724 658.386 851.591C642.366 844.458 622.608 848.81 604.256 856.956C580.394 867.548 545.801 852.146 537.705 827.325C531.479 808.237 521.492 790.642 505.472 783.509C489.45 776.375 469.686 780.73 451.331 788.877C427.472 799.467 392.892 784.071 384.797 759.254C378.57 740.162 368.581 722.561 352.559 715.428C336.536 708.294 316.772 712.648 298.417 720.795C274.559 731.386 239.978 715.989 231.884 691.173C229.408 683.582 226.337 676.226 222.529 669.671C422.683 669.209 680.326 756.614 899.538 927.218C981.072 499.197 1082.83 281.973 1344.56 -72.3091C1089.24 17.4835 974.373 -38.1635 846.014 -294.274Z" fill="#FFED46"/>
</g>
<defs>
<clipPath id="clip0_445_984">
<rect width="1400" height="900" fill="white"/>
</clipPath>
</defs>
</svg>
