<svg width="2560" height="1440" viewBox="0 0 2560 1440" fill="none" xmlns="http://www.w3.org/2000/svg">
<g clip-path="url(#clip0_446_1003)">
<rect width="2560" height="1440" fill="white"/>
<path d="M1494.67 -399.327L1076.38 203.675C1250.91 281.379 1401.4 371.926 1529.91 498.276C1488.59 491.571 1448.11 486.501 1408.03 482.338C995.614 439.506 557.387 657.138 389.191 1034.91L389.489 1034.84C388.302 1037.11 387.178 1039.44 386.12 1041.81C358.662 1103.48 386.546 1175.8 448.401 1203.34C471.496 1213.62 499.899 1207.61 526.419 1196.05C561.97 1180.54 613.348 1203.42 625.614 1240.21C634.765 1267.66 649.302 1292.79 672.398 1303.07C695.868 1313.52 724.82 1307.14 751.707 1295.21C786.656 1279.7 837.312 1302.25 849.169 1338.6C858.291 1366.57 872.923 1392.35 896.394 1402.8C919.861 1413.25 948.804 1406.87 975.686 1394.94C1010.64 1379.43 1061.31 1401.99 1073.17 1438.35C1082.29 1466.31 1096.92 1492.08 1120.39 1502.53C1143.86 1512.98 1172.81 1506.6 1199.7 1494.67C1234.65 1479.15 1285.3 1501.71 1297.16 1538.06C1306.31 1565.51 1321.27 1591.97 1344.37 1602.25C1406.22 1629.79 1478.63 1602.12 1506.08 1540.45C1533.54 1478.78 1505.68 1406.47 1443.82 1378.93C1420.35 1368.48 1391.38 1374.85 1364.49 1386.78C1329.54 1402.3 1278.91 1379.75 1267.05 1343.4C1257.93 1315.43 1243.29 1289.65 1219.82 1279.2C1196.36 1268.75 1167.41 1275.13 1140.53 1287.06C1105.58 1302.57 1054.9 1280.01 1043.04 1243.65C1033.92 1215.69 1019.29 1189.92 995.828 1179.47C972.357 1169.02 943.406 1175.4 916.518 1187.33C881.569 1202.85 830.914 1180.29 819.057 1143.94C809.934 1115.97 795.302 1090.19 771.831 1079.74C748.361 1069.29 719.409 1075.67 692.522 1087.6C657.573 1103.12 606.917 1080.56 595.06 1044.21C591.433 1033.09 586.935 1022.32 581.357 1012.71C874.553 1012.04 1251.96 1140.07 1573.08 1389.98C1692.51 762.993 1841.57 444.792 2224.96 -74.1801C1850.96 57.3531 1682.7 -24.1616 1494.67 -399.327Z" fill="#FFED46"/>
</g>
<defs>
<clipPath id="clip0_446_1003">
<rect width="2560" height="1440" fill="white"/>
</clipPath>
</defs>
</svg>
