<svg width="1024" height="768" viewBox="0 0 1024 768" fill="none" xmlns="http://www.w3.org/2000/svg">
<g clip-path="url(#clip0_446_1008)">
<rect width="1024" height="768" fill="white"/>
<path d="M612.855 -112.525L416.42 170.653C498.379 207.144 569.053 249.666 629.403 309.002C610 305.853 590.989 303.472 572.165 301.517C378.49 281.403 172.693 383.606 93.7054 561.014L93.8454 560.979C93.2876 562.047 92.7597 563.138 92.263 564.254C79.3684 593.216 92.4633 627.178 121.511 640.111C132.357 644.94 145.695 642.117 158.15 636.685C174.845 629.404 198.973 640.147 204.733 657.426C209.03 670.316 215.857 682.117 226.703 686.945C237.725 691.853 251.321 688.858 263.948 683.253C280.361 675.968 304.149 686.559 309.717 703.631C314.001 716.765 320.873 728.873 331.895 733.78C342.915 738.686 356.507 735.693 369.132 730.089C385.547 722.803 409.344 733.398 414.913 750.473C419.196 763.604 426.067 775.708 437.087 780.614C448.109 785.522 461.705 782.527 474.332 776.922C490.745 769.637 514.533 780.228 520.101 797.299C524.399 810.189 531.425 822.616 542.27 827.444C571.318 840.377 605.319 827.384 618.214 798.422C631.109 769.46 618.022 735.502 588.975 722.569C577.952 717.662 564.348 720.652 551.721 726.257C535.308 733.542 511.528 722.955 505.96 705.884C501.676 692.75 494.805 680.642 483.783 675.734C472.762 670.828 459.17 673.821 446.546 679.425C430.13 686.712 406.333 676.117 400.764 659.042C396.481 645.91 389.611 633.807 378.591 628.9C367.569 623.993 353.973 626.988 341.346 632.593C324.933 639.878 301.145 629.286 295.576 612.215C291.292 599.081 284.421 586.973 273.399 582.066C262.377 577.158 248.781 580.153 236.154 585.758C219.741 593.043 195.953 582.452 190.384 565.38C188.681 560.158 186.569 555.098 183.949 550.589C321.638 550.271 498.875 610.398 649.675 727.76C705.764 433.317 775.762 283.885 955.81 40.1684C780.174 101.938 701.155 63.6578 612.855 -112.525Z" fill="#FFED46"/>
</g>
<defs>
<clipPath id="clip0_446_1008">
<rect width="1024" height="768" fill="white"/>
</clipPath>
</defs>
</svg>
