<svg width="1400" height="900" viewBox="0 0 1400 900" fill="none" xmlns="http://www.w3.org/2000/svg">
<path d="M682 941.105L946.314 1045.71C966.365 995.046 955.336 939.775 922.355 901.015L992.579 928.807C1012.63 878.143 1001.6 822.872 968.62 784.112L1038.84 811.904C1067.76 738.837 1032.03 656.187 959.046 627.302C886.057 598.416 803.447 634.233 774.53 707.3L844.755 735.092C794.181 740.785 748.315 773.539 728.265 824.203L798.49 851.994C747.916 857.687 702.05 890.442 682 941.105Z" fill="#FD4E2B"/>
<path d="M1519.28 -13.0934L1606.88 170.623C1449.18 131.885 1240.12 209.34 1175.27 387.195L1104.35 136.253L1519.28 -13.0934Z" fill="#FD4E2B"/>
<path d="M401.801 679.029C305.277 579.602 146.427 577.248 47 673.772L396.544 1033.83C495.971 937.305 498.325 778.456 401.801 679.029Z" fill="#FD4E2B"/>
<path d="M318.15 271.171L318.495 271.605L239.042 335.178C239.008 334.968 238.975 334.758 238.941 334.549L139.02 414.498L218.631 514.635C237.828 467.204 245.92 416.144 242.468 365.364L306.078 445.376C326.706 394.41 334.513 339.254 328.951 284.757L397.76 371.309C417.664 322.132 425.631 269.054 421.169 216.432L487.325 299.646C510.414 242.599 517.44 180.304 507.635 119.559L318.15 271.171Z" fill="#FD4E2B"/>
<path d="M253.545 214.1L25.2199 126.261C173.309 64.89 219.793 -22.1276 134.116 -176L449.273 -17.9232L253.545 214.1Z" fill="#FD4E2B"/>
<path d="M1350.13 1053.61L1091 580.567L1194.26 524L1181.08 546.38C1156.84 587.532 1185.29 639.469 1233.02 641.195L1258.97 642.134L1245.79 664.514C1221.55 705.666 1250 757.603 1297.73 759.329L1323.69 760.268L1310.38 782.918C1286.2 824.047 1314.61 875.911 1362.29 877.68L1388.54 878.654L1375.23 901.303C1351.05 942.433 1379.46 994.297 1427.14 996.066L1453.39 997.04L1350.13 1053.61Z" fill="#FD4E2B"/>
<path d="M1018.36 95.1347L653.161 419.931L622.105 330.893C604.102 279.277 608.011 222.541 632.924 173.882L795.159 -143L1018.36 95.1347Z" fill="#FFED46"/>
</svg>
