<svg width="900" height="681" viewBox="0 0 900 681" fill="none" xmlns="http://www.w3.org/2000/svg">
<path d="M724.716 571.088L826.247 624.143L797.187 145.963C740.412 290.812 542.831 309.1 460.435 177.133L440.974 145.963C361.547 231.65 276.335 268.015 137.818 264.408L569.483 489.972L91.9004 489.972L91.9004 625.465L110.018 600.371C142.918 554.805 212.3 560.875 236.788 611.462L250.273 639.32L268.391 614.227C301.291 568.661 370.672 574.731 395.16 625.318L408.645 653.176L426.534 628.351C459.427 582.704 528.908 588.783 553.375 639.449L566.681 667.003L584.569 642.178C617.463 596.53 686.943 602.609 711.41 653.275L724.716 680.829L724.716 571.088Z" fill="#FD4E2B"/>
<circle cx="103.914" cy="249.216" r="103.914" fill="white"/>
<circle cx="796.086" cy="103.914" r="103.914" fill="white"/>
</svg>
