<svg width="1400" height="900" viewBox="0 0 1400 900" fill="none" xmlns="http://www.w3.org/2000/svg">
<path fill-rule="evenodd" clip-rule="evenodd" d="M1400 0H0V900H1400V0ZM617.768 296.892L786.125 54.9067C861.445 205.71 928.989 238.547 1079.29 185.92C924.999 394.171 864.949 521.905 816.624 773.692C687.776 673.128 536.247 621.488 418.473 621.596C420.708 625.457 422.509 629.787 423.96 634.256C428.703 648.865 449.038 657.953 463.085 651.741C473.892 646.962 485.525 644.416 494.947 648.626C504.369 652.837 510.232 663.202 513.881 674.441C518.624 689.05 538.959 698.137 553.006 691.925C563.813 687.146 575.446 684.6 584.868 688.811C594.288 693.021 600.151 703.382 603.798 714.619C608.542 729.231 628.884 738.321 642.934 732.108C653.739 727.33 665.368 724.786 674.789 728.996C684.211 733.206 690.074 743.571 693.723 754.81C698.466 769.419 718.793 778.503 732.84 772.291C743.647 767.512 755.288 764.97 764.71 769.18C789.541 780.277 800.694 809.339 789.63 834.096C778.567 858.853 749.468 869.928 724.637 858.831C715.366 854.688 709.371 844.05 705.711 833.02C700.968 818.411 680.633 809.324 666.586 815.535C655.779 820.315 644.146 822.861 634.723 818.65C625.303 814.44 619.441 804.079 615.793 792.842C611.049 778.23 590.707 769.139 576.657 775.352C565.853 780.131 554.223 782.675 544.802 778.465C535.38 774.255 529.517 763.89 525.868 752.651C521.126 738.042 500.791 728.954 486.744 735.166C475.936 739.945 464.303 742.491 454.881 738.281C445.61 734.137 439.785 724.035 436.124 713.005C431.218 698.218 410.592 689.001 396.303 695.209C385.644 699.84 374.232 702.239 364.961 698.096C340.13 686.999 328.969 657.934 340.033 633.176C340.459 632.223 340.912 631.29 341.39 630.377L341.27 630.407C409.043 478.753 585.194 391.577 750.831 409.012C766.93 410.706 783.187 412.765 799.78 415.481C748.23 364.657 687.829 328.202 617.768 296.892Z" fill="white"/>
</svg>
